PathFileType	4	(X/Y/Z)	C:/Users/beibeiliu/ov580/test_trc/User3\sequence.10_training_dense_right.trc
DataRate	CameraRate	NumFrames	NumMarkers	Units	OrigDataRate	OrigDataStartFrame	OrigNumFrames
120	120	20	19	mm	120	33	263
Frame#	Time	ThumbCMC			ThumbMCP			ThumbIP			ThumbTip			IndexMCP			IndexPIP			IndexTip			MiddleMCP			MiddlePIP			MiddleTip			RingMCP			RingPIP			RingTip			PinkyMCP			PinkyPIP			PinkyTip			BackHand1			BackHand2			BackHand3	
		X0	Y0	Z0	X1	Y1	Z1	X2	Y2	Z2	X3	Y3	Z3	X4	Y4	Z4	X5	Y5	Z5	X6	Y6	Z6	X7	Y7	Z7	X8	Y8	Z8	X9	Y9	Z9	X10	Y10	Z10	X11	Y11	Z11	X12	Y12	Z12	X13	Y13	Z13	X14	Y14	Z14	X15	Y15	Z15	X16	Y16	Z16	X17	Y17	Z17	X18	Y18	Z18	
32	0.266667	122.31	-32.5042	44.5025	102.735	-37.3507	16.3249	86.4446	-40.1083	-7.20187	78.2583	-48.1314	-27.2546	132.037	-45.8564	-31.8881	114.342	-76.9403	-27.2633	118.955	-72.2622	2.03491	148.133	-59.8698	-32.537	131.108	-87.6514	-20.6108	141.189	-71.4107	14.3104	162.162	-72.2178	-23.2188	147.355	-93.9278	-7.25833	151.39	-74.5898	21.7601	177.344	-77.4956	-14.0386	162.259	-96.9657	1.33183	162.063	-74.7485	24.9205	185.749	-33.3084	13.756	189.272	-32.8563	44.0833	157.105	-19.7379	27.6966	
33	0.275	124.14	-32.8165	43.5765	103.517	-35.7524	22.2329	87.0344	-38.7198	-2.45089	76.1025	-42.9044	-25.467	127.407	-47.356	-32.9381	115.298	-75.6861	-27.157	122.877	-71.0422	4.79789	150.654	-60.2845	-30.8182	132.205	-87.2288	-20.1539	138.232	-70.6021	14.8278	161.297	-75.0455	-22.6855	148.832	-93.8515	-4.60364	153.169	-76.1656	22.2815	175.491	-79.6949	-13.8983	160.484	-95.5111	3.16243	164.029	-74.6572	30.1574	185.225	-31.1547	13.8583	187.011	-30.6673	42.9829	153.502	-18.2117	32.4418	
34	0.283333	126.028	-31.5643	41.5706	103.989	-31.9912	19.3632	91.5327	-35.5299	-1.25252	75.5598	-37.3172	-23.3588	132.837	-48.0987	-30.3643	114.343	-76.2582	-21.7974	122.245	-69.1743	7.29431	144.2	-60.4798	-32.3307	132.362	-85.8715	-19.3284	142.122	-66.6399	16.1387	160.358	-71.4365	-21.5817	149.401	-92.316	-5.16621	150.076	-70.5116	24.2656	175.127	-78.7122	-12.296	160.893	-93.7257	5.58272	162.28	-74.1696	28.4789	186.175	-33.7653	15.9298	187.254	-30.9602	46.8546	155.271	-17.9656	29.5845	
35	0.291667	127.786	-29.91	45.512	106.063	-28.5362	18.3104	89.2181	-29.147	-2.22035	80.3322	-33.3396	-22.0072	128.053	-48.5844	-31.6531	119.25	-75.713	-22.7116	121.859	-67.0631	9.40661	145.897	-62.682	-32.3483	133.174	-86.7175	-15.6525	144.943	-68.1463	16.8125	163.879	-72.2974	-20.1765	145.968	-91.2477	-0.963055	153.432	-70.2755	26.4277	173.238	-79.8648	-12.7022	160.306	-92.5563	3.48252	164.172	-73.5082	28.5412	184.618	-29.9153	14.7324	188.98	-29.7054	48.8077	159.411	-17.19	30.5082	
36	0.3	128.989	-26.7795	41.7581	109.722	-26.5879	22.0628	91.4451	-23.2299	-5.82703	79.2313	-25.6802	-21.209	132.994	-49.8921	-30.3693	115.781	-75.333	-19.7346	125.539	-66.7676	10.0474	143.662	-61.6886	-30.4959	132.97	-85.5715	-14.5398	142.205	-62.8979	19.4946	162.16	-71.9574	-19.4268	146.84	-91.1404	1.46992	151.497	-69.6601	25.8813	177.696	-80.0202	-10.4341	158.845	-93.5562	10.2627	161.55	-75.8075	29.2764	185.239	-32.9197	14.7376	188.825	-28.7686	43.1044	160.104	-16.5089	32.7939	
37	0.308333	131.37	-25.8057	45.6964	110.416	-20.939	22.8127	93.0524	-16.586	-5.43513	81.1085	-17.8063	-21.6	133.166	-48.8304	-27.5972	118.311	-75.5706	-18.3469	122.328	-60.9284	13.39	146.121	-63.5536	-29.2663	133.678	-86.4173	-10.8925	145.533	-63.0287	19.4763	162.258	-73.3247	-19.0125	145.013	-91.069	3.52016	148.437	-70.7799	26.7344	175.512	-83.6428	-9.33822	157.546	-93.4999	10.9375	162.18	-71.5099	30.5971	188.812	-33.3292	15.5723	194.001	-30.7648	43.0422	161.649	-16.5659	27.0493	
38	0.316667	133.281	-21.3463	46.7201	115.201	-16.1333	22.8562	99.1199	-10.0732	-4.33144	86.1712	-10.0994	-18.0539	131.854	-51.1925	-28.0434	114.086	-72.4682	-14.1743	124.857	-57.4069	13.8474	148.374	-64.6531	-26.7363	128.473	-83.5548	-9.49829	141.705	-59.1531	21.9396	156.964	-75.6777	-17.1102	143.872	-92.4878	2.32621	146.609	-69.7393	28.4625	174.505	-82.7904	-7.64187	157.307	-96.001	9.08025	159.941	-75.2443	30.4111	188.492	-36.6943	16.5574	192.165	-31.1491	43.8412	165.563	-15.5395	28.2312	
39	0.325	133.621	-15.0716	46.3235	120.25	-11.1141	18.2193	106.959	-6.42741	-5.30126	92.4067	-3.27041	-18.7748	133.161	-43.7894	-25.2578	110.876	-67.6841	-15.9608	121.37	-53.4555	14.6792	142.702	-63.0667	-26.7447	126.072	-81.9752	-4.8057	143.381	-58.5929	22.2109	156.178	-78.848	-14.9147	138.431	-89.4258	6.19366	146.431	-66.2021	30.0523	169.005	-82.5627	-6.91681	151.036	-94.443	12.5087	159.893	-73.227	33.4457	191.973	-40.7914	16.2115	195.931	-35.5963	47.9678	167.464	-14.5287	28.1267	
40	0.333333	138.633	-11.8125	42.7178	124.157	-8.3691	20.1327	109.4	-0.649243	-3.68705	98.4104	3.14662	-21.3216	133.536	-43.0712	-26.5039	112.361	-65.7409	-14.3402	125.405	-49.8017	15.398	145.628	-64.5428	-24.5693	122.783	-78.2226	-7.12602	140.905	-56.9887	23.4814	157.515	-77.5858	-11.8052	135.324	-87.5032	7.82556	146.13	-67.9295	32.6839	167.741	-88.5401	-4.0617	147.627	-94.7569	15.6295	157.884	-75.6984	36.3368	190.779	-42.1794	15.8738	198.018	-36.1862	46.6507	171.961	-18.4416	29.2309	
41	0.341667	143.468	-11.2568	42.7271	127.473	-3.7146	21.5716	115.833	2.1506	-6.10249	102.026	9.85105	-23.8646	132.81	-42.1329	-26.6431	109.695	-61.3366	-12.0661	121.034	-46.6346	15.1508	140.104	-64.4233	-24.5907	121.502	-77.678	-3.17271	142.656	-56.715	23.9858	151.227	-79.902	-11.4246	130.881	-85.7927	7.36215	146.864	-63.8566	32.891	165.812	-89.4289	-2.17855	141.529	-90.2161	16.2256	154.22	-76.6422	36.7323	193.707	-45.6315	17.6949	196.807	-41.4809	44.6509	173.209	-16.5061	28.8994	
42	0.35	148.087	-10.196	40.443	132.999	-2.50873	19.7374	120.282	7.59946	-8.10653	108.406	16.2838	-25.5538	133.001	-46.4486	-26.0062	109.949	-58.7775	-12.1799	122.19	-45.4584	15.7099	139.733	-66.5629	-23.1704	118.451	-75.5685	-4.36667	138.508	-54.856	25.4968	148.227	-75.8089	-10.652	127.52	-82.8792	10.9828	139.706	-62.5873	32.7156	160.785	-91.3957	-0.93635	138.124	-93.3933	16.2254	151.332	-73.6004	38.2994	193.25	-48.9267	17.5325	198.513	-45.0245	44.3026	175.962	-19.1884	24.6908	
43	0.358333	150.162	-5.86223	40.1126	138.045	-1.53428	17.4818	126.534	8.7534	-7.36134	116.509	16.2821	-24.0017	136.929	-43.0226	-24.558	106.161	-52.8116	-7.85915	120.922	-41.6233	17.279	141.535	-61.6375	-21.0509	113.622	-67.952	-2.61232	134.382	-51.4903	25.8158	147.606	-76.1371	-10.2882	124.272	-78.4676	13.6195	141.987	-62.966	34.793	154.989	-91.8565	-0.460755	133.912	-87.7751	17.2649	149.491	-72.3875	38.2871	192.25	-51.0382	18.0327	199.169	-45.8238	44.4081	180.363	-22.4709	28.5007	
44	0.366667	154.47	-8.79762	37.103	143.32	0.911781	17.0061	132.679	10.923	-8.5816	123.173	20.4167	-26.5214	132.027	-41.9453	-26.7376	105.981	-48.687	-11.0006	123.528	-42.3012	18.5821	136.828	-60.6823	-21.1681	113.504	-67.1427	-0.00745624	136.132	-49.1066	26.7568	141.181	-76.7746	-8.24567	121.137	-75.1312	15.2724	140.547	-59.935	35.1257	151.267	-86.3673	1.74821	131.446	-84.8105	21.5574	147.265	-67.3585	36.9356	192.395	-54.9478	13.9471	198.321	-48.2952	48.3706	181.566	-21.163	27.6871	
45	0.375	159.231	-6.54046	37.0545	149.842	4.96578	12.6158	141.689	17.3258	-12.5497	133.153	27.1209	-30.2731	138.489	-40.2436	-25.6167	107.07	-43.2937	-11.4706	124.398	-35.8554	18.17	137.274	-57.8237	-21.7915	110.917	-60.0782	-3.4676	136.508	-47.5702	26.6548	143.601	-72.4365	-8.1587	119.305	-71.5454	14.521	138.163	-55.7435	36.0307	146.138	-88.9511	2.92701	128.502	-81.1532	18.9716	147.363	-68.1695	42.4057	190.437	-55.015	16.8009	201.272	-52.1431	49.1577	183.668	-20.7458	23.705	
46	0.383333	164.688	-1.70835	34.9877	157.638	6.15014	11.7934	150.1	19.3622	-17.2655	143.162	25.8864	-30.3375	137.504	-35.1098	-26.1426	108.979	-40.8072	-11.2549	128.221	-33.8523	18.145	137.524	-57.3223	-20.8339	110.664	-54.609	-1.2143	137.192	-44.2884	25.6578	141.241	-70.8301	-8.49384	116.691	-66.4335	13.6346	137.279	-51.7465	35.012	140.89	-88.4197	4.3493	125.607	-76.1694	26.1571	145.109	-61.9861	38.9967	188.914	-63.6841	15.4435	199.742	-55.9784	44.8669	188.018	-26.6991	24.0803	
47	0.391667	171.875	-4.43235	36.4955	166.094	9.71994	8.94794	160.732	20.768	-16.8588	154.607	25.377	-36.1345	140.567	-32.1973	-26.8525	110.157	-35.7035	-10.6412	127.599	-25.1833	15.7622	134.633	-57.5147	-20.4736	110.615	-48.102	1.35175	141.053	-37.4924	25.1326	138.292	-70.1292	-7.6071	114.642	-62.6898	15.509	135.206	-48.2933	34.0693	137.315	-83.5635	5.59698	121.936	-68.4989	21.3053	142.419	-57.3835	39.0427	189.443	-65.9854	18.5971	199.185	-55.6096	48.2653	191.75	-27.6941	26.1363	
48	0.4	178.014	-2.15219	32.8945	174.151	10.1371	8.02085	169.497	18.6415	-21.8182	164.508	26.5022	-35.8362	137.278	-33.6213	-28.8768	112.487	-24.7523	-14.6526	129.633	-23.6503	14.6378	133.402	-54.5015	-20.8426	111.102	-41.2784	-2.06494	142.029	-34.6165	23.4484	134.451	-65.2932	-9.35295	112.441	-56.6743	10.2461	139.765	-44.9844	33.8733	135.099	-81.0879	6.39326	117.595	-67.1409	24.2687	140.824	-55.0056	37.8743	186.537	-67.4787	20.4223	197.564	-61.3874	46.0062	194.201	-30.7787	23.3568	
49	0.408333	183.081	-5.78159	30.2002	181.556	5.7098	1.25966	179.01	17.4594	-21.415	175.53	24.2782	-41.5962	143.086	-32.0875	-27.8518	116.39	-21.101	-10.3089	138.583	-19.4694	13.8825	137.867	-48.1378	-21.8865	112.569	-37.6511	1.26095	142.887	-32.8178	22.0584	130.538	-64.5252	-7.05566	112.33	-47.7293	9.64433	139.863	-39.9746	33.1747	133.564	-75.1788	5.72938	116.563	-60.7182	23.8712	139.157	-51.3794	38.7079	183.787	-69.5543	18.3768	194.449	-60.5588	45.7349	197.259	-34.5694	22.7085	
50	0.416667	190.018	-4.81053	25.7408	189.881	5.95984	1.26396	188.857	13.4597	-23.5137	188.646	21.4916	-45.3753	145.063	-28.5107	-31.9802	120.346	-14.0097	-15.2154	140.492	-13.8287	11.0073	133.723	-44.478	-23.6563	115.761	-28.6432	-5.06607	144.987	-33.56	21.5255	129.691	-61.4342	-7.60114	113.001	-43.4713	9.43528	141.364	-38.5414	32.3291	129.159	-70.5401	5.80541	117.051	-50.3983	19.366	139.965	-51.7606	39.5369	181.544	-69.1265	15.1771	194.451	-63.7263	44.3212	197.692	-38.3499	23.3379	
51	0.425	197.1	-5.24255	27.6251	197.06	-0.897494	-1.86977	196.639	7.38838	-25.7846	198.471	15.1037	-47.7435	150.931	-30.4089	-31.9302	125.661	-13.9282	-19.3204	146.92	-10.4601	8.38129	139.899	-45.0169	-23.5667	118.881	-25.0248	-7.37604	152.363	-27.6398	18.5998	130.933	-59.4872	-7.60028	116.972	-34.6203	9.88176	144.194	-35.7126	30.7116	127.511	-66.1521	4.37731	115.92	-49.5552	20.2218	144.582	-46.804	37.9521	180.592	-71.1715	15.7751	192.198	-68.03	47.5963	201.589	-40.2549	20.7721	
